<svg width="40" height="28" viewBox="0 0 40 28" fill="none" xmlns="http://www.w3.org/2000/svg">
<g clip-path="url(#clip0_74_52626)">
<path d="M16.0147 -0.00012207H0.00012207V27.9629H16.0147V-0.00012207Z" fill="#009900" stroke="url(#paint0_linear_74_52626)" stroke-width="0.0999789"/>
<path d="M40.0012 0.0371094H15.9792V28.0001H40.0012V0.0371094Z" fill="#FF0000"/>
<path d="M15.0692 11.6435L15.1162 10.6201L21.7994 9.90601L21.7524 10.9294L15.0692 11.6435Z" fill="#222222"/>
<path d="M15.1405 11.514L15.1765 10.7325L21.7282 10.0345L21.6922 10.8159L15.1405 11.514Z" fill="#EFEF00"/>
<path d="M15.0679 10.7262L15.0831 10.3982L21.8325 9.68275L21.8173 10.0108L15.0679 10.7262Z" fill="#222222"/>
<path d="M15.1336 10.5971L15.1378 10.5054L21.7668 9.80612L21.7625 9.89787L15.1336 10.5971Z" fill="#EFEF00"/>
<path d="M15.014 11.8679L15.0292 11.5399L21.7785 10.8245L21.7634 11.1525L15.014 11.8679Z" fill="#222222"/>
<path d="M15.0796 11.7388L15.0839 11.6471L21.7128 10.9479L21.7086 11.0396L15.0796 11.7388Z" fill="#EFEF00"/>
<path d="M16.0791 14.976L16.1261 13.9526L22.8094 13.2385L22.7624 14.2619L16.0791 14.976Z" fill="#222222"/>
<path d="M16.1504 14.8465L16.1864 14.0651L22.7381 13.367L22.7021 14.1485L16.1504 14.8465Z" fill="#EFEF00"/>
<path d="M16.0778 14.0587L16.093 13.7307L22.8424 13.0153L22.8272 13.3433L16.0778 14.0587Z" fill="#222222"/>
<path d="M16.1434 13.9296L16.1477 13.8379L22.7767 13.1387L22.7724 13.2304L16.1434 13.9296Z" fill="#EFEF00"/>
<path d="M16.0239 15.2004L16.0391 14.8724L22.7884 14.157L22.7732 14.485L16.0239 15.2004Z" fill="#222222"/>
<path d="M16.0895 15.0714L16.0938 14.9796L22.7227 14.2803L22.7184 14.3721L16.0895 15.0714Z" fill="#EFEF00"/>
<path d="M15.6749 18.7316L15.7219 17.7083L22.4052 16.9941L22.3582 18.0175L15.6749 18.7316Z" fill="#222222"/>
<path d="M15.7462 18.6021L15.7822 17.8207L22.3339 17.1226L22.2979 17.9041L15.7462 18.6021Z" fill="#EFEF00"/>
<path d="M15.6737 17.8143L15.6888 17.4863L22.4382 16.7709L22.423 17.0989L15.6737 17.8143Z" fill="#222222"/>
<path d="M15.7393 17.6852L15.7435 17.5935L22.3725 16.8943L22.3682 16.986L15.7393 17.6852Z" fill="#EFEF00"/>
<path d="M15.6197 18.9561L15.6349 18.6281L22.3842 17.9126L22.3691 18.2406L15.6197 18.9561Z" fill="#222222"/>
<path d="M15.6853 18.827L15.6896 18.7352L22.3186 18.036L22.3143 18.1277L15.6853 18.827Z" fill="#EFEF00"/>
<path d="M16.5769 18.4672L16.5299 17.4438L9.84667 16.7298L9.89366 17.7531L16.5769 18.4672Z" fill="#222222"/>
<path d="M16.5056 18.3377L16.4696 17.5563L9.91797 16.8582L9.95395 17.6397L16.5056 18.3377Z" fill="#EFEF00"/>
<path d="M16.5782 17.5499L16.563 17.2219L9.81365 16.5065L9.82883 16.8345L16.5782 17.5499Z" fill="#222222"/>
<path d="M16.5126 17.4208L16.5083 17.3291L9.87934 16.6299L9.88361 16.7216L16.5126 17.4208Z" fill="#EFEF00"/>
<path d="M16.6321 18.6917L16.6169 18.3636L9.86757 17.6482L9.88275 17.9762L16.6321 18.6917Z" fill="#222222"/>
<path d="M16.5665 18.5626L16.5623 18.4708L9.9333 17.7716L9.93756 17.8633L16.5665 18.5626Z" fill="#EFEF00"/>
<path d="M15.7793 15.3455L16.0612 14.4233L8.92518 13.6084L8.64328 14.5306L15.7793 15.3455Z" fill="#222222"/>
<path d="M15.7412 15.227L15.957 14.5227L8.96354 13.7259L8.74773 14.4302L15.7412 15.227Z" fill="#EFEF00"/>
<path d="M16.0798 14.5194L16.1713 14.2225L8.97044 13.4065L8.87899 13.7034L16.0798 14.5194Z" fill="#222222"/>
<path d="M16.0469 14.4018L16.0728 14.3185L9.00342 13.5245L8.97752 13.6079L16.0469 14.4018Z" fill="#EFEF00"/>
<path d="M15.7582 15.549L15.8496 15.2521L8.64878 14.436L8.55732 14.7329L15.7582 15.549Z" fill="#222222"/>
<path d="M15.7252 15.4313L15.7511 15.348L8.68176 14.5541L8.65586 14.6374L15.7252 15.4313Z" fill="#EFEF00"/>
<path d="M14.4679 15.059L15.1858 14.2609L9.94037 10.4993L9.22243 11.2974L14.4679 15.059Z" fill="#222222"/>
<path d="M14.5004 14.9276L15.05 14.3165L9.9088 10.63L9.35912 11.241L14.5004 14.9276Z" fill="#EFEF00"/>
<path d="M15.1389 14.373L15.3744 14.1113L10.0803 10.3161L9.84487 10.5778L15.1389 14.373Z" fill="#222222"/>
<path d="M15.1754 14.2448L15.2421 14.1707L10.0437 10.4447L9.977 10.5188L15.1754 14.2448Z" fill="#EFEF00"/>
<path d="M14.3463 15.2537L14.5818 14.9921L9.2877 11.1969L9.05226 11.4585L14.3463 15.2537Z" fill="#222222"/>
<path d="M14.3828 15.1255L14.4495 15.0514L9.2511 11.3254L9.18441 11.3995L14.3828 15.1255Z" fill="#EFEF00"/>
<path fill-rule="evenodd" clip-rule="evenodd" d="M21.8389 14.2682C21.8414 17.7495 19.1466 20.5749 15.824 20.5749C12.501 20.5805 9.80155 17.7596 9.7994 14.2784C9.79133 10.7971 12.4816 7.96658 15.8046 7.96151C19.1276 7.95023 21.8308 10.7665 21.8383 14.2479C21.8388 14.255 21.8388 14.2609 21.8388 14.268L21.8389 14.2682ZM23.2509 14.2682C23.2541 18.5661 19.9274 22.054 15.8253 22.054C11.7226 22.0611 8.39046 18.5786 8.38723 14.2806C8.37754 9.98255 11.6989 6.48849 15.8016 6.48173C19.9038 6.4682 23.2413 9.94512 23.2509 14.2434C23.2511 14.2519 23.2511 14.2593 23.2511 14.2679L23.2509 14.2682Z" fill="#EFEF00" fill-opacity="0.99967"/>
<path fill-rule="evenodd" clip-rule="evenodd" d="M23.1023 14.2684C23.1053 18.4806 19.8451 21.8991 15.8246 21.8991C11.8045 21.9057 8.53846 18.4928 8.5353 14.2805C8.52581 10.0688 11.7808 6.64485 15.8014 6.63822C19.8217 6.62496 23.0922 10.0323 23.1017 14.2441C23.102 14.2529 23.102 14.2601 23.102 14.2684H23.1023ZM22.9566 14.2684C22.9596 18.3961 19.7646 21.7466 15.825 21.7466C11.885 21.7527 8.68436 18.4083 8.68173 14.2805C8.67224 10.1528 11.8618 6.79732 15.8023 6.79069C19.742 6.77743 22.9471 10.1169 22.9566 14.2446C22.9567 14.2529 22.9567 14.2601 22.9567 14.2684H22.9566Z" fill="#222222"/>
<path fill-rule="evenodd" clip-rule="evenodd" d="M22.1374 14.2682C22.14 17.9224 19.3118 20.8879 15.8239 20.8879C12.3365 20.8936 9.50313 17.9329 9.50038 14.2787C9.49215 10.625 12.3159 7.65471 15.8038 7.64896C19.2915 7.63746 22.1287 10.5934 22.1369 14.2471C22.1371 14.2548 22.1371 14.261 22.1371 14.2682H22.1374ZM22.011 14.2682C22.0136 17.849 19.2419 20.7556 15.8242 20.7556C12.4063 20.7609 9.6297 17.8596 9.62741 14.2787C9.61918 10.6979 12.3862 7.78698 15.8046 7.78123C19.2223 7.76973 22.0027 10.6667 22.011 14.2476C22.0111 14.2548 22.0111 14.261 22.0111 14.2682H22.011Z" fill="#222222"/>
<path d="M16.411 6.46326H15.488V22.1215H16.411V6.46326Z" fill="#222222"/>
<path d="M16.3024 6.61694H15.5956V21.968H16.3024V6.61694Z" fill="#EFEF00"/>
<path d="M15.5955 6.35828H15.2926V22.1745H15.5955V6.35828Z" fill="#222222"/>
<path d="M15.4872 6.49866H15.4014V22.0338H15.4872V6.49866Z" fill="#EFEF00"/>
<path d="M16.6053 6.35828H16.3024V22.1745H16.6053V6.35828Z" fill="#222222"/>
<path d="M16.4968 6.49866H16.411V22.0338H16.4968V6.49866Z" fill="#EFEF00"/>
<path d="M15.9143 16.5667L15.5847 15.6094L8.99517 17.0487L9.32479 18.006L15.9143 16.5667Z" fill="#222222"/>
<path d="M15.8095 16.4691L15.5571 15.7377L9.09957 17.1454L9.35189 17.8768L15.8095 16.4691Z" fill="#EFEF00"/>
<path d="M15.655 15.702L15.5475 15.3922L8.89922 16.833L9.00674 17.1428L15.655 15.702Z" fill="#222222"/>
<path d="M15.5563 15.6077L15.5259 15.5204L8.99972 16.9288L9.03014 17.0161L15.5563 15.6077Z" fill="#EFEF00"/>
<path d="M16.03 16.7754L15.9225 16.4656L9.27422 17.9063L9.38174 18.2162L16.03 16.7754Z" fill="#222222"/>
<path d="M15.9313 16.681L15.9009 16.5938L9.37472 18.0021L9.40514 18.0894L15.9313 16.681Z" fill="#EFEF00"/>
<path d="M15.2674 13.6675L15.225 12.6876L8.32785 13.4934L8.37025 14.4733L15.2674 13.6675Z" fill="#222222"/>
<path d="M15.1945 13.5602L15.162 12.812L8.40062 13.5996L8.43308 14.3478L15.1945 13.5602Z" fill="#EFEF00"/>
<path d="M15.2742 12.7849L15.2604 12.4705L8.29476 13.274L8.30853 13.5884L15.2742 12.7849Z" fill="#222222"/>
<path d="M15.2073 12.6834L15.2034 12.5953L8.36229 13.3787L8.36617 13.4668L15.2073 12.6834Z" fill="#EFEF00"/>
<path d="M15.3229 13.8802L15.3091 13.5658L8.34345 14.3694L8.35722 14.6838L15.3229 13.8802Z" fill="#222222"/>
<path d="M15.256 13.7788L15.2521 13.6907L8.41099 14.474L8.41488 14.5621L15.256 13.7788Z" fill="#EFEF00"/>
<path d="M14.8344 13.4253L15.3921 12.5132L9.57147 9.80946L9.01377 10.7216L14.8344 13.4253Z" fill="#222222"/>
<path d="M14.8417 13.2895L15.2686 12.5918L9.56485 9.94423L9.13795 10.6419L14.8417 13.2895Z" fill="#EFEF00"/>
<path d="M15.3694 12.621L15.552 12.3231L9.68147 9.60324L9.49887 9.9011L15.3694 12.621Z" fill="#222222"/>
<path d="M15.3809 12.4879L15.4326 12.4037L9.66994 9.73709L9.61824 9.82132L15.3809 12.4879Z" fill="#EFEF00"/>
<path d="M14.7443 13.6389L14.9269 13.3411L9.05633 10.6212L8.87373 10.919L14.7443 13.6389Z" fill="#222222"/>
<path d="M14.7558 13.5059L14.8075 13.4216L9.04481 10.7551L8.99311 10.8393L14.7558 13.5059Z" fill="#EFEF00"/>
<path d="M23.3354 13.7792L23.3472 12.7915L16.4169 12.426L16.4051 13.4137L23.3354 13.7792Z" fill="#222222"/>
<path d="M23.2687 13.6581L23.2777 12.9036L16.4835 12.5462L16.4745 13.3007L23.2687 13.6581Z" fill="#EFEF00"/>
<path d="M23.3925 12.8976L23.3962 12.5814L16.3963 12.213L16.3925 12.5292L23.3925 12.8976Z" fill="#222222"/>
<path d="M23.3316 12.7777L23.3326 12.6891L16.4583 12.3341L16.4573 12.4227L23.3316 12.7777Z" fill="#EFEF00"/>
<path d="M23.3789 13.9922L23.3827 13.676L16.3828 13.3076L16.379 13.6238L23.3789 13.9922Z" fill="#222222"/>
<path d="M23.318 13.8722L23.3191 13.7836L16.4447 13.4286L16.4436 13.5172L23.318 13.8722Z" fill="#EFEF00"/>
<path d="M22.3698 10.7887L22.1096 9.89978L16.3767 9.70359L16.6369 10.5925L22.3698 10.7887Z" fill="#222222"/>
<path d="M22.2818 10.6814L22.0826 10.0018L16.4645 9.80982L16.6637 10.4894L22.2818 10.6814Z" fill="#EFEF00"/>
<path d="M22.1683 9.99832L22.0852 9.71252L16.2998 9.51318L16.3829 9.79897L22.1683 9.99832Z" fill="#222222"/>
<path d="M22.0853 9.89181L22.0616 9.81213L16.3841 9.62046L16.4077 9.70013L22.0853 9.89181Z" fill="#EFEF00"/>
<path d="M22.4654 10.9785L22.3823 10.6927L16.5969 10.4934L16.68 10.7792L22.4654 10.9785Z" fill="#222222"/>
<path d="M22.3824 10.872L22.3588 10.7924L16.6812 10.6007L16.7048 10.6804L22.3824 10.872Z" fill="#EFEF00"/>
<path d="M22.4691 17.9064L22.868 16.9996L16.4767 14.533L16.0778 15.4398L22.4691 17.9064Z" fill="#222222"/>
<path d="M22.4521 17.7732L22.7574 17.0798L16.4941 14.6654L16.1888 15.3588L22.4521 17.7732Z" fill="#EFEF00"/>
<path d="M22.8675 17.1007L22.998 16.8053L16.5505 14.3277L16.42 14.623L22.8675 17.1007Z" fill="#222222"/>
<path d="M22.8554 16.9701L22.8923 16.8866L16.5629 14.4592L16.5259 14.5427L22.8554 16.9701Z" fill="#EFEF00"/>
<path d="M22.4167 18.118L22.5472 17.8226L16.0997 15.345L15.9692 15.6404L22.4167 18.118Z" fill="#222222"/>
<path d="M22.4046 17.9874L22.4415 17.9039L16.112 15.4766L16.0751 15.56L22.4046 17.9874Z" fill="#EFEF00"/>
<path d="M20.0751 9.12683H11.5153V15.7284H20.0751V9.12683Z" fill="#F6F6FB"/>
<path d="M15.7946 19.716C18.1583 19.716 20.0745 17.8478 20.0745 15.5434C20.0745 13.2389 18.1583 11.3707 15.7946 11.3707C13.4309 11.3707 11.5148 13.2389 11.5148 15.5434C11.5148 17.8478 13.4309 19.716 15.7946 19.716Z" fill="#F6F6FB"/>
<path d="M18.1063 11.0586H13.4839V14.6233H18.1063V11.0586Z" fill="#F6F6FB"/>
<path d="M15.7952 17.2739C17.0716 17.2739 18.1064 16.2651 18.1064 15.0207C18.1064 13.7763 17.0716 12.7675 15.7952 12.7675C14.5188 12.7675 13.484 13.7763 13.484 15.0207C13.484 16.2651 14.5188 17.2739 15.7952 17.2739Z" fill="#F6F6FB"/>
<path d="M19.8604 9.39148H11.7285V15.6629H19.8604V9.39148Z" fill="#FF0000"/>
<path d="M15.794 19.4512C18.0395 19.4512 19.8598 17.6765 19.8598 15.4872C19.8598 13.2979 18.0395 11.5232 15.794 11.5232C13.5485 11.5232 11.7281 13.2979 11.7281 15.4872C11.7281 17.6765 13.5485 19.4512 15.794 19.4512Z" fill="#FF0000"/>
<path d="M17.99 11.2267H13.5988V14.6132H17.99V11.2267Z" fill="#FF0000"/>
<path d="M15.7945 17.1312C17.0071 17.1312 17.9901 16.1728 17.9901 14.9906C17.9901 13.8085 17.0071 12.8501 15.7945 12.8501C14.5819 12.8501 13.5989 13.8085 13.5989 14.9906C13.5989 16.1728 14.5819 17.1312 15.7945 17.1312Z" fill="#FF0000"/>
<path d="M18.2214 11.4186H13.3679V15.1616H18.2214V11.4186Z" fill="#440000"/>
<path d="M15.7943 17.4226C17.1345 17.4226 18.221 16.3633 18.221 15.0567C18.221 13.75 17.1345 12.6908 15.7943 12.6908C14.4541 12.6908 13.3677 13.75 13.3677 15.0567C13.3677 16.3633 14.4541 17.4226 15.7943 17.4226Z" fill="#440000"/>
<path d="M17.105 12.5139H14.4841V14.5351H17.105V12.5139Z" fill="#440000"/>
<path d="M15.7947 16.0379C16.5184 16.0379 17.1051 15.466 17.1051 14.7604C17.1051 14.0548 16.5184 13.4828 15.7947 13.4828C15.071 13.4828 14.4843 14.0548 14.4843 14.7604C14.4843 15.466 15.071 16.0379 15.7947 16.0379Z" fill="#440000"/>
<path d="M17.9847 11.7111H13.6044V15.0892H17.9847V11.7111Z" fill="white"/>
<path d="M15.7942 17.1297C17.0038 17.1297 17.9843 16.1737 17.9843 14.9945C17.9843 13.8152 17.0038 12.8593 15.7942 12.8593C14.5847 12.8593 13.6041 13.8152 13.6041 14.9945C13.6041 16.1737 14.5847 17.1297 15.7942 17.1297Z" fill="white"/>
<path d="M16.9772 12.6996H14.6118V14.5238H16.9772V12.6996Z" fill="white"/>
<path d="M15.7946 15.8801C16.4478 15.8801 16.9773 15.3639 16.9773 14.7271C16.9773 14.0903 16.4478 13.5741 15.7946 13.5741C15.1414 13.5741 14.6119 14.0903 14.6119 14.7271C14.6119 15.3639 15.1414 15.8801 15.7946 15.8801Z" fill="white"/>
<path d="M16.4704 15.3224H15.1864V16.3126H16.4704V15.3224Z" fill="#3B3BFF"/>
<path d="M15.8283 16.9107C16.1828 16.9107 16.4702 16.6305 16.4702 16.2848C16.4702 15.9392 16.1828 15.6589 15.8283 15.6589C15.4737 15.6589 15.1863 15.9392 15.1863 16.2848C15.1863 16.6305 15.4737 16.9107 15.8283 16.9107Z" fill="#3B3BFF"/>
<path d="M16.175 15.6122H15.4817V16.1469H16.175V15.6122Z" fill="#3B3BFF"/>
<path d="M15.8284 16.5445C16.0198 16.5445 16.175 16.3932 16.175 16.2065C16.175 16.0198 16.0198 15.8685 15.8284 15.8685C15.6369 15.8685 15.4817 16.0198 15.4817 16.2065C15.4817 16.3932 15.6369 16.5445 15.8284 16.5445Z" fill="#3B3BFF"/>
<path d="M16.4382 15.3621H15.2184V16.3028H16.4382V15.3621Z" fill="#3B3BFF"/>
<path d="M15.8281 16.871C16.165 16.871 16.438 16.6048 16.438 16.2764C16.438 15.948 16.165 15.6818 15.8281 15.6818C15.4913 15.6818 15.2183 15.948 15.2183 16.2764C15.2183 16.6048 15.4913 16.871 15.8281 16.871Z" fill="#3B3BFF"/>
<path d="M16.1576 15.6373H15.4989V16.1453H16.1576V15.6373Z" fill="#3B3BFF"/>
<path d="M15.8282 16.523C16.0101 16.523 16.1576 16.3793 16.1576 16.2019C16.1576 16.0246 16.0101 15.8809 15.8282 15.8809C15.6464 15.8809 15.4989 16.0246 15.4989 16.2019C15.4989 16.3793 15.6464 16.523 15.8282 16.523Z" fill="#3B3BFF"/>
<path d="M16.193 15.6661H15.465V16.2276H16.193V15.6661Z" fill="#3B3BFF"/>
<path d="M15.8282 16.5667C16.0293 16.5667 16.1922 16.4078 16.1922 16.2118C16.1922 16.0158 16.0293 15.8569 15.8282 15.8569C15.6272 15.8569 15.4642 16.0158 15.4642 16.2118C15.4642 16.4078 15.6272 16.5667 15.8282 16.5667Z" fill="#3B3BFF"/>
<path d="M16.0248 15.8304H15.6317V16.1336H16.0248V15.8304Z" fill="#3B3BFF"/>
<path d="M15.8283 16.3591C15.9368 16.3591 16.0249 16.2733 16.0249 16.1675C16.0249 16.0616 15.9368 15.9758 15.8283 15.9758C15.7197 15.9758 15.6317 16.0616 15.6317 16.1675C15.6317 16.2733 15.7197 16.3591 15.8283 16.3591Z" fill="#3B3BFF"/>
<path d="M16.1573 15.71H15.5002V16.2167H16.1573V15.71Z" fill="#3B3BFF"/>
<path d="M15.8281 16.5228C16.0096 16.5228 16.1567 16.3794 16.1567 16.2025C16.1567 16.0256 16.0096 15.8822 15.8281 15.8822C15.6467 15.8822 15.4996 16.0256 15.4996 16.2025C15.4996 16.3794 15.6467 16.5228 15.8281 16.5228Z" fill="#3B3BFF"/>
<path d="M16.0055 15.8583H15.6508V16.1319H16.0055V15.8583Z" fill="#3B3BFF"/>
<path d="M15.8282 16.3354C15.9261 16.3354 16.0056 16.258 16.0056 16.1625C16.0056 16.0669 15.9261 15.9895 15.8282 15.9895C15.7302 15.9895 15.6508 16.0669 15.6508 16.1625C15.6508 16.258 15.7302 16.3354 15.8282 16.3354Z" fill="#3B3BFF"/>
<path d="M15.4425 15.8038C15.5486 15.8038 15.6345 15.7138 15.6345 15.6027C15.6345 15.4916 15.5486 15.4015 15.4425 15.4015C15.3365 15.4015 15.2505 15.4916 15.2505 15.6027C15.2505 15.7138 15.3365 15.8038 15.4425 15.8038Z" fill="white"/>
<path d="M16.1622 15.8038C16.2683 15.8038 16.3542 15.7138 16.3542 15.6027C16.3542 15.4916 16.2683 15.4015 16.1622 15.4015C16.0562 15.4015 15.9702 15.4916 15.9702 15.6027C15.9702 15.7138 16.0562 15.8038 16.1622 15.8038Z" fill="white"/>
<path d="M15.796 16.2275C15.9021 16.2275 15.988 16.1375 15.988 16.0264C15.988 15.9153 15.9021 15.8252 15.796 15.8252C15.69 15.8252 15.604 15.9153 15.604 16.0264C15.604 16.1375 15.69 16.2275 15.796 16.2275Z" fill="white"/>
<path d="M15.4705 16.6379C15.5765 16.6379 15.6625 16.5479 15.6625 16.4368C15.6625 16.3257 15.5765 16.2356 15.4705 16.2356C15.3644 16.2356 15.2784 16.3257 15.2784 16.4368C15.2784 16.5479 15.3644 16.6379 15.4705 16.6379Z" fill="white"/>
<path d="M16.1547 16.6511C16.2607 16.6511 16.3467 16.5611 16.3467 16.45C16.3467 16.3388 16.2607 16.2488 16.1547 16.2488C16.0486 16.2488 15.9626 16.3388 15.9626 16.45C15.9626 16.5611 16.0486 16.6511 16.1547 16.6511Z" fill="white"/>
<path fill-rule="evenodd" clip-rule="evenodd" d="M11.8569 10.3129V10.4408H13.4846V10.3129H11.8569ZM11.9981 9.96002V10.316H13.3817V9.96002H11.9981ZM11.876 11.1304V11.2583H13.5037V11.1304H11.876ZM12.3122 11.0908C12.312 10.8586 12.4823 10.6702 12.6923 10.6702C12.9024 10.6698 13.073 10.8579 13.0731 11.0901V11.0954L12.3122 11.0908ZM12.2699 11.1139C12.2698 10.856 12.459 10.6466 12.6923 10.6466C12.9257 10.6462 13.1152 10.8552 13.1154 11.1132C13.1154 11.1152 13.1154 11.117 13.1154 11.119L12.2699 11.1139ZM11.9981 10.4759V11.1154H13.3817V10.4759H11.9981ZM11.8569 9.83803V9.959H13.4846V9.83803H11.8569ZM11.8567 9.6674V9.83927H11.9821V9.6674H11.8567ZM13.3599 9.6674V9.83927H13.4852V9.6674H13.3599ZM12.1067 9.67084V9.84271H12.2321V9.67084H12.1067ZM13.1033 9.6674V9.83922H13.2287V9.6674H13.1033ZM12.3501 9.50545V9.67726H12.4755V9.50545H12.3501ZM12.85 9.50545V9.67726H12.9754V9.50545H12.85ZM12.6066 9.50195V9.67383H12.7321V9.50195H12.6066ZM12.3497 9.6785V9.84282H12.9747V9.6785H12.3497Z" fill="#FFFF00"/>
<path d="M12.4699 9.93567H12.3445V10.1075H12.4699V9.93567Z" fill="#FF0000"/>
<path d="M13.0324 9.93237H12.907V10.1042H13.0324V9.93237Z" fill="#FF0000"/>
<path fill-rule="evenodd" clip-rule="evenodd" d="M18.1047 10.3334V10.4613H19.7324V10.3334H18.1047ZM18.2459 9.98053V10.3365H19.6294V9.98053H18.2459ZM18.1238 11.1509V11.2788H19.7515V11.1509H18.1238ZM18.56 11.1113C18.5598 10.8791 18.7301 10.6907 18.9401 10.6907C19.1502 10.6903 19.3208 10.8784 19.3209 11.1106V11.1159L18.56 11.1113ZM18.5177 11.1344C18.5176 10.8765 18.7068 10.6671 18.9401 10.6671C19.1735 10.6667 19.363 10.8757 19.3632 11.1337C19.3632 11.1357 19.3632 11.1375 19.3632 11.1395L18.5177 11.1344ZM18.2459 10.4964V11.1359H19.6294V10.4964H18.2459ZM18.1047 9.85854V9.97951H19.7324V9.85854H18.1047ZM18.1045 9.68791V9.85978H18.2299V9.68791H18.1045ZM19.6076 9.68791V9.85978H19.733V9.68791H19.6076ZM18.3545 9.69135V9.86322H18.4799V9.69135H18.3545ZM19.3511 9.68791V9.85972H19.4765V9.68791H19.3511ZM18.5979 9.52596V9.69777H18.7233V9.52596H18.5979ZM19.0978 9.52596V9.69777H19.2232V9.52596H19.0978ZM18.8544 9.52246V9.69433H18.9798V9.52246H18.8544ZM18.5975 9.69901V9.86333H19.2225V9.69901H18.5975Z" fill="#FFFF00"/>
<path d="M18.7172 9.95618H18.5918V10.128H18.7172V9.95618Z" fill="#FF0000"/>
<path d="M19.2796 9.95288H19.1542V10.1247H19.2796V9.95288Z" fill="#FF0000"/>
<path fill-rule="evenodd" clip-rule="evenodd" d="M15.0393 10.3334V10.4613H16.6671V10.3334H15.0393ZM15.1806 9.98053V10.3365H16.5641V9.98053H15.1806ZM15.0585 11.1509V11.2788H16.6862V11.1509H15.0585ZM15.4947 11.1113C15.4945 10.8791 15.6648 10.6907 15.8748 10.6907C16.0849 10.6903 16.2555 10.8784 16.2556 11.1106V11.1159L15.4947 11.1113ZM15.4524 11.1344C15.4522 10.8765 15.6415 10.6671 15.8748 10.6671C16.1082 10.6667 16.2977 10.8757 16.2979 11.1337C16.2979 11.1357 16.2979 11.1375 16.2979 11.1395L15.4524 11.1344ZM15.1806 10.4964V11.1359H16.5641V10.4964H15.1806ZM15.0393 9.85854V9.97951H16.6671V9.85854H15.0393ZM15.0392 9.68791V9.85978H15.1646V9.68791H15.0392ZM16.5423 9.68791V9.85978H16.6677V9.68791H16.5423ZM15.2892 9.69135V9.86322H15.4146V9.69135H15.2892ZM16.2857 9.68791V9.85972H16.4112V9.68791H16.2857ZM15.5326 9.52596V9.69777H15.658V9.52596H15.5326ZM16.0325 9.52596V9.69777H16.1579V9.52596H16.0325ZM15.7891 9.52246V9.69433H15.9145V9.52246H15.7891ZM15.5322 9.69901V9.86333H16.1572V9.69901H15.5322Z" fill="#FFFF00"/>
<path d="M15.652 9.95618H15.5266V10.128H15.652V9.95618Z" fill="#FF0000"/>
<path d="M16.2144 9.95288H16.089V10.1247H16.2144V9.95288Z" fill="#FF0000"/>
<path fill-rule="evenodd" clip-rule="evenodd" d="M11.7201 14.3219V14.4498H13.3478V14.3219H11.7201ZM11.8614 13.9691V14.325H13.2449V13.9691H11.8614ZM11.7393 15.1394V15.2673H13.367V15.1394H11.7393ZM12.1755 15.0998C12.1753 14.8676 12.3456 14.6792 12.5556 14.6792C12.7657 14.6789 12.9362 14.867 12.9364 15.0992V15.1044L12.1755 15.0998ZM12.1332 15.1229C12.133 14.865 12.3223 14.6556 12.5556 14.6556C12.789 14.6552 12.9785 14.8642 12.9787 15.1222C12.9787 15.1242 12.9787 15.126 12.9786 15.128L12.1332 15.1229ZM11.8614 14.4849V15.1244H13.2449V14.4849H11.8614ZM11.7201 13.8471V13.968H13.3478V13.8471H11.7201ZM11.72 13.6764V13.8483H11.8454V13.6764H11.72ZM13.2231 13.6764V13.8483H13.3485V13.6764H13.2231ZM11.9699 13.6799V13.8517H12.0954V13.6799H11.9699ZM12.9665 13.6764V13.8482H13.0919V13.6764H12.9665ZM12.2134 13.5145V13.6863H12.3388V13.5145H12.2134ZM12.7133 13.5145V13.6863H12.8387V13.5145H12.7133ZM12.4699 13.511V13.6829H12.5953V13.511H12.4699ZM12.213 13.6875V13.8519H12.8379V13.6875H12.213Z" fill="#FFFF00"/>
<path d="M12.3333 13.9449H12.2079V14.1168H12.3333V13.9449Z" fill="#FF0000"/>
<path d="M12.8957 13.9417H12.7703V14.1135H12.8957V13.9417Z" fill="#FF0000"/>
<path fill-rule="evenodd" clip-rule="evenodd" d="M18.222 14.2814V14.4093H19.8497V14.2814H18.222ZM18.3632 13.9285V14.2845H19.7468V13.9285H18.3632ZM18.2411 15.0989V15.2268H19.8688V15.0989H18.2411ZM18.6773 15.0593C18.6772 14.8271 18.8474 14.6387 19.0575 14.6387C19.2675 14.6383 19.4381 14.8264 19.4382 15.0586V15.0639L18.6773 15.0593ZM18.635 15.0824C18.6349 14.8245 18.8241 14.6151 19.0575 14.6151C19.2908 14.6147 19.4803 14.8237 19.4805 15.0817C19.4805 15.0837 19.4805 15.0855 19.4805 15.0875L18.635 15.0824ZM18.3632 14.4444V15.0839H19.7468V14.4444H18.3632ZM18.222 13.8065V13.9275H19.8497V13.8065H18.222ZM18.2218 13.6359V13.8078H18.3472V13.6359H18.2218ZM19.725 13.6359V13.8078H19.8503V13.6359H19.725ZM18.4718 13.6393V13.8112H18.5972V13.6393H18.4718ZM19.4684 13.6359V13.8077H19.5938V13.6359H19.4684ZM18.7152 13.474V13.6458H18.8406V13.474H18.7152ZM19.2151 13.474V13.6458H19.3405V13.474H19.2151ZM18.9717 13.4705V13.6423H19.0972V13.4705H18.9717ZM18.7148 13.647V13.8113H19.3398V13.647H18.7148Z" fill="#FFFF00"/>
<path d="M18.8345 13.9038H18.7091V14.0757H18.8345V13.9038Z" fill="#FF0000"/>
<path d="M19.3969 13.9005H19.2715V14.0724H19.3969V13.9005Z" fill="#FF0000"/>
<path fill-rule="evenodd" clip-rule="evenodd" d="M13.129 18.1899L13.2215 18.2734L14.284 16.9815L14.1915 16.898L13.129 18.1899ZM12.966 17.8474L13.2234 18.0798L14.1265 16.9817L13.8691 16.7493L12.966 17.8474ZM13.7326 18.7083L13.8251 18.7918L14.8876 17.4999L14.7951 17.4164L13.7326 18.7083ZM13.9887 18.3363C13.8207 18.1848 13.7956 17.9266 13.9327 17.76C14.0696 17.593 14.3169 17.5804 14.4849 17.7319L14.4887 17.7353L13.9887 18.3363ZM13.9778 18.3849C13.7912 18.2167 13.7633 17.9298 13.9156 17.7446C14.0677 17.5591 14.3425 17.5451 14.5292 17.7134C14.5307 17.7147 14.5319 17.7158 14.5334 17.7172L13.9778 18.3849ZM13.339 18.1841L13.8014 18.6016L14.7046 17.5035L14.2421 17.086L13.339 18.1841ZM12.7856 17.8799L12.8731 17.9589L13.9356 16.667L13.8481 16.588L12.7856 17.8799ZM12.6621 17.7686L12.7864 17.8808L12.8683 17.7813L12.744 17.6691L12.6621 17.7686ZM13.6433 16.5756L13.7676 16.6878L13.8494 16.5883L13.7251 16.4761L13.6433 16.5756ZM12.8278 17.5725L12.9521 17.6847L13.0339 17.5851L12.9096 17.4729L12.8278 17.5725ZM13.4758 16.7793L13.6001 16.8914L13.6819 16.7919L13.5577 16.6797L13.4758 16.7793ZM12.8671 17.2713L12.9913 17.3835L13.0732 17.2839L12.9489 17.1718L12.8671 17.2713ZM13.1934 16.8746L13.3176 16.9867L13.3995 16.8872L13.2753 16.775L13.1934 16.8746ZM13.032 17.0654L13.1563 17.1776L13.2382 17.0781L13.1139 16.9659L13.032 17.0654ZM12.992 17.3846L13.1108 17.4919L13.5187 16.9958L13.3999 16.8886L12.992 17.3846Z" fill="#FFFF00"/>
<path d="M13.2558 17.4577L13.1743 17.5569L13.2989 17.6694L13.3805 17.5703L13.2558 17.4577Z" fill="#FF0000"/>
<path d="M13.6204 17.0088L13.5389 17.1079L13.6636 17.2205L13.7451 17.1213L13.6204 17.0088Z" fill="#FF0000"/>
<path fill-rule="evenodd" clip-rule="evenodd" d="M18.5208 18.1695L18.4283 18.253L17.3658 16.9611L17.4583 16.8776L18.5208 18.1695ZM18.6838 17.827L18.4264 18.0594L17.5232 16.9613L17.7807 16.7289L18.6838 17.827ZM17.9172 18.6879L17.8247 18.7714L16.7622 17.4795L16.8547 17.396L17.9172 18.6879ZM17.6611 18.3159C17.8291 18.1644 17.8542 17.9063 17.7171 17.7396C17.5802 17.5726 17.3329 17.5601 17.1649 17.7115L17.1611 17.7149L17.6611 18.3159ZM17.672 18.3645C17.8586 18.1963 17.8865 17.9094 17.7342 17.7242C17.5821 17.5387 17.3073 17.5247 17.1206 17.693C17.1191 17.6943 17.1179 17.6954 17.1164 17.6968L17.672 18.3645ZM18.3108 18.1638L17.8483 18.5812L16.9452 17.4831L17.4076 17.0657L18.3108 18.1638ZM18.8642 17.8595L18.7767 17.9385L17.7142 16.6466L17.8017 16.5676L18.8642 17.8595ZM18.9877 17.7483L18.8634 17.8604L18.7815 17.7609L18.9058 17.6487L18.9877 17.7483ZM18.0065 16.5552L17.8822 16.6674L17.8004 16.5679L17.9246 16.4557L18.0065 16.5552ZM18.822 17.5521L18.6977 17.6643L18.6159 17.5647L18.7401 17.4526L18.822 17.5521ZM18.174 16.7589L18.0497 16.871L17.9679 16.7715L18.0921 16.6593L18.174 16.7589ZM18.7827 17.2509L18.6585 17.3631L18.5766 17.2636L18.7008 17.1514L18.7827 17.2509ZM18.4564 16.8542L18.3321 16.9663L18.2503 16.8668L18.3745 16.7546L18.4564 16.8542ZM18.6178 17.045L18.4935 17.1572L18.4116 17.0577L18.5359 16.9455L18.6178 17.045ZM18.6578 17.3642L18.539 17.4715L18.1311 16.9755L18.2499 16.8682L18.6578 17.3642Z" fill="#FFFF00"/>
<path d="M18.3938 17.4375L18.4753 17.5366L18.3507 17.6491L18.2692 17.55L18.3938 17.4375Z" fill="#FF0000"/>
<path d="M18.0292 16.9884L18.1107 17.0875L17.9861 17.2001L17.9046 17.1009L18.0292 16.9884Z" fill="#FF0000"/>
<path d="M16.4496 11.8051H15.1656V12.7953H16.4496V11.8051Z" fill="#3B3BFF"/>
<path d="M15.8076 13.3934C16.1622 13.3934 16.4496 13.1132 16.4496 12.7675C16.4496 12.4218 16.1622 12.1416 15.8076 12.1416C15.4531 12.1416 15.1656 12.4218 15.1656 12.7675C15.1656 13.1132 15.4531 13.3934 15.8076 13.3934Z" fill="#3B3BFF"/>
<path d="M16.1544 12.0948H15.4611V12.6296H16.1544V12.0948Z" fill="#3B3BFF"/>
<path d="M15.8077 13.0272C15.9992 13.0272 16.1544 12.8759 16.1544 12.6892C16.1544 12.5025 15.9992 12.3512 15.8077 12.3512C15.6163 12.3512 15.4611 12.5025 15.4611 12.6892C15.4611 12.8759 15.6163 13.0272 15.8077 13.0272Z" fill="#3B3BFF"/>
<path d="M16.4175 11.8447H15.1978V12.7854H16.4175V11.8447Z" fill="#3B3BFF"/>
<path d="M15.8075 13.3536C16.1443 13.3536 16.4174 13.0874 16.4174 12.759C16.4174 12.4306 16.1443 12.1644 15.8075 12.1644C15.4707 12.1644 15.1976 12.4306 15.1976 12.759C15.1976 13.0874 15.4707 13.3536 15.8075 13.3536Z" fill="#3B3BFF"/>
<path d="M16.137 12.12H15.4783V12.628H16.137V12.12Z" fill="#3B3BFF"/>
<path d="M15.8076 13.0057C15.9895 13.0057 16.137 12.8619 16.137 12.6846C16.137 12.5073 15.9895 12.3635 15.8076 12.3635C15.6257 12.3635 15.4783 12.5073 15.4783 12.6846C15.4783 12.8619 15.6257 13.0057 15.8076 13.0057Z" fill="#3B3BFF"/>
<path d="M16.1724 12.1488H15.4443V12.7103H16.1724V12.1488Z" fill="#3B3BFF"/>
<path d="M15.8076 13.0494C16.0086 13.0494 16.1716 12.8905 16.1716 12.6945C16.1716 12.4985 16.0086 12.3396 15.8076 12.3396C15.6066 12.3396 15.4436 12.4985 15.4436 12.6945C15.4436 12.8905 15.6066 13.0494 15.8076 13.0494Z" fill="#3B3BFF"/>
<path d="M16.0042 12.3131H15.6111V12.6163H16.0042V12.3131Z" fill="#3B3BFF"/>
<path d="M15.8077 12.8418C15.9162 12.8418 16.0042 12.756 16.0042 12.6501C16.0042 12.5443 15.9162 12.4585 15.8077 12.4585C15.6991 12.4585 15.6111 12.5443 15.6111 12.6501C15.6111 12.756 15.6991 12.8418 15.8077 12.8418Z" fill="#3B3BFF"/>
<path d="M16.1367 12.1926H15.4796V12.6993H16.1367V12.1926Z" fill="#3B3BFF"/>
<path d="M15.8075 13.0054C15.989 13.0054 16.136 12.862 16.136 12.6851C16.136 12.5083 15.989 12.3649 15.8075 12.3649C15.6261 12.3649 15.479 12.5083 15.479 12.6851C15.479 12.862 15.6261 13.0054 15.8075 13.0054Z" fill="#3B3BFF"/>
<path d="M15.9849 12.3409H15.6301V12.6146H15.9849V12.3409Z" fill="#3B3BFF"/>
<path d="M15.8075 12.8181C15.9055 12.8181 15.9849 12.7406 15.9849 12.6451C15.9849 12.5496 15.9055 12.4722 15.8075 12.4722C15.7096 12.4722 15.6301 12.5496 15.6301 12.6451C15.6301 12.7406 15.7096 12.8181 15.8075 12.8181Z" fill="#3B3BFF"/>
<path d="M15.4219 12.2865C15.5279 12.2865 15.6139 12.1964 15.6139 12.0853C15.6139 11.9742 15.5279 11.8842 15.4219 11.8842C15.3158 11.8842 15.2299 11.9742 15.2299 12.0853C15.2299 12.1964 15.3158 12.2865 15.4219 12.2865Z" fill="white"/>
<path d="M16.1416 12.2865C16.2477 12.2865 16.3336 12.1964 16.3336 12.0853C16.3336 11.9742 16.2477 11.8842 16.1416 11.8842C16.0356 11.8842 15.9496 11.9742 15.9496 12.0853C15.9496 12.1964 16.0356 12.2865 16.1416 12.2865Z" fill="white"/>
<path d="M15.7754 12.7102C15.8815 12.7102 15.9674 12.6201 15.9674 12.509C15.9674 12.3979 15.8815 12.3079 15.7754 12.3079C15.6693 12.3079 15.5834 12.3979 15.5834 12.509C15.5834 12.6201 15.6693 12.7102 15.7754 12.7102Z" fill="white"/>
<path d="M15.4498 13.1206C15.5559 13.1206 15.6419 13.0305 15.6419 12.9194C15.6419 12.8083 15.5559 12.7183 15.4498 12.7183C15.3438 12.7183 15.2578 12.8083 15.2578 12.9194C15.2578 13.0305 15.3438 13.1206 15.4498 13.1206Z" fill="white"/>
<path d="M16.134 13.1338C16.2401 13.1338 16.3261 13.0437 16.3261 12.9326C16.3261 12.8215 16.2401 12.7314 16.134 12.7314C16.028 12.7314 15.942 12.8215 15.942 12.9326C15.942 13.0437 16.028 13.1338 16.134 13.1338Z" fill="white"/>
<path d="M16.4498 13.553H15.1658V14.5432H16.4498V13.553Z" fill="#3B3BFF"/>
<path d="M15.8076 15.1413C16.1622 15.1413 16.4496 14.8611 16.4496 14.5154C16.4496 14.1697 16.1622 13.8895 15.8076 13.8895C15.4531 13.8895 15.1656 14.1697 15.1656 14.5154C15.1656 14.8611 15.4531 15.1413 15.8076 15.1413Z" fill="#3B3BFF"/>
<path d="M16.1544 13.8428H15.4611V14.3775H16.1544V13.8428Z" fill="#3B3BFF"/>
<path d="M15.8077 14.7751C15.9992 14.7751 16.1544 14.6238 16.1544 14.4371C16.1544 14.2504 15.9992 14.0991 15.8077 14.0991C15.6163 14.0991 15.4611 14.2504 15.4611 14.4371C15.4611 14.6238 15.6163 14.7751 15.8077 14.7751Z" fill="#3B3BFF"/>
<path d="M16.4176 13.5927H15.1978V14.5334H16.4176V13.5927Z" fill="#3B3BFF"/>
<path d="M15.8075 15.1016C16.1443 15.1016 16.4174 14.8354 16.4174 14.507C16.4174 14.1786 16.1443 13.9124 15.8075 13.9124C15.4707 13.9124 15.1976 14.1786 15.1976 14.507C15.1976 14.8354 15.4707 15.1016 15.8075 15.1016Z" fill="#3B3BFF"/>
<path d="M16.137 13.8679H15.4783V14.3759H16.137V13.8679Z" fill="#3B3BFF"/>
<path d="M15.8076 14.7536C15.9895 14.7536 16.137 14.6098 16.137 14.4325C16.137 14.2552 15.9895 14.1115 15.8076 14.1115C15.6257 14.1115 15.4783 14.2552 15.4783 14.4325C15.4783 14.6098 15.6257 14.7536 15.8076 14.7536Z" fill="#3B3BFF"/>
<path d="M16.1723 13.8967H15.4443V14.4582H16.1723V13.8967Z" fill="#3B3BFF"/>
<path d="M15.8076 14.7973C16.0086 14.7973 16.1716 14.6384 16.1716 14.4424C16.1716 14.2464 16.0086 14.0875 15.8076 14.0875C15.6066 14.0875 15.4436 14.2464 15.4436 14.4424C15.4436 14.6384 15.6066 14.7973 15.8076 14.7973Z" fill="#3B3BFF"/>
<path d="M16.0042 14.061H15.6111V14.3642H16.0042V14.061Z" fill="#3B3BFF"/>
<path d="M15.8077 14.5897C15.9162 14.5897 16.0042 14.5039 16.0042 14.3981C16.0042 14.2922 15.9162 14.2064 15.8077 14.2064C15.6991 14.2064 15.6111 14.2922 15.6111 14.3981C15.6111 14.5039 15.6991 14.5897 15.8077 14.5897Z" fill="#3B3BFF"/>
<path d="M16.1367 13.9406H15.4796V14.4473H16.1367V13.9406Z" fill="#3B3BFF"/>
<path d="M15.8075 14.7534C15.9889 14.7534 16.136 14.61 16.136 14.4331C16.136 14.2562 15.9889 14.1128 15.8075 14.1128C15.6261 14.1128 15.479 14.2562 15.479 14.4331C15.479 14.61 15.6261 14.7534 15.8075 14.7534Z" fill="#3B3BFF"/>
<path d="M15.9849 14.0889H15.6301V14.3625H15.9849V14.0889Z" fill="#3B3BFF"/>
<path d="M15.8075 14.566C15.9055 14.566 15.9849 14.4886 15.9849 14.3931C15.9849 14.2975 15.9055 14.2201 15.8075 14.2201C15.7096 14.2201 15.6301 14.2975 15.6301 14.3931C15.6301 14.4886 15.7096 14.566 15.8075 14.566Z" fill="#3B3BFF"/>
<path d="M15.4219 14.0344C15.5279 14.0344 15.6139 13.9444 15.6139 13.8333C15.6139 13.7222 15.5279 13.6321 15.4219 13.6321C15.3158 13.6321 15.2299 13.7222 15.2299 13.8333C15.2299 13.9444 15.3158 14.0344 15.4219 14.0344Z" fill="white"/>
<path d="M16.1416 14.0344C16.2477 14.0344 16.3336 13.9444 16.3336 13.8333C16.3336 13.7222 16.2477 13.6321 16.1416 13.6321C16.0356 13.6321 15.9496 13.7222 15.9496 13.8333C15.9496 13.9444 16.0356 14.0344 16.1416 14.0344Z" fill="white"/>
<path d="M15.7754 14.4581C15.8815 14.4581 15.9674 14.3681 15.9674 14.257C15.9674 14.1459 15.8815 14.0558 15.7754 14.0558C15.6693 14.0558 15.5834 14.1459 15.5834 14.257C15.5834 14.3681 15.6693 14.4581 15.7754 14.4581Z" fill="white"/>
<path d="M15.4498 14.8685C15.5559 14.8685 15.6419 14.7785 15.6419 14.6674C15.6419 14.5563 15.5559 14.4662 15.4498 14.4662C15.3438 14.4662 15.2578 14.5563 15.2578 14.6674C15.2578 14.7785 15.3438 14.8685 15.4498 14.8685Z" fill="white"/>
<path d="M16.134 14.8817C16.2401 14.8817 16.3261 14.7917 16.3261 14.6805C16.3261 14.5694 16.2401 14.4794 16.134 14.4794C16.028 14.4794 15.942 14.5694 15.942 14.6805C15.942 14.7917 16.028 14.8817 16.134 14.8817Z" fill="white"/>
<path d="M17.8741 13.553H16.5901V14.5432H17.8741V13.553Z" fill="#3B3BFF"/>
<path d="M17.2319 15.1413C17.5865 15.1413 17.8739 14.8611 17.8739 14.5154C17.8739 14.1697 17.5865 13.8895 17.2319 13.8895C16.8774 13.8895 16.59 14.1697 16.59 14.5154C16.59 14.8611 16.8774 15.1413 17.2319 15.1413Z" fill="#3B3BFF"/>
<path d="M17.5787 13.8428H16.8854V14.3775H17.5787V13.8428Z" fill="#3B3BFF"/>
<path d="M17.2321 14.7751C17.4235 14.7751 17.5787 14.6238 17.5787 14.4371C17.5787 14.2504 17.4235 14.0991 17.2321 14.0991C17.0406 14.0991 16.8854 14.2504 16.8854 14.4371C16.8854 14.6238 17.0406 14.7751 17.2321 14.7751Z" fill="#3B3BFF"/>
<path d="M17.8418 13.5927H16.6221V14.5334H17.8418V13.5927Z" fill="#3B3BFF"/>
<path d="M17.2318 15.1016C17.5686 15.1016 17.8417 14.8354 17.8417 14.507C17.8417 14.1786 17.5686 13.9124 17.2318 13.9124C16.895 13.9124 16.6219 14.1786 16.6219 14.507C16.6219 14.8354 16.895 15.1016 17.2318 15.1016Z" fill="#3B3BFF"/>
<path d="M17.5613 13.8679H16.9026V14.3759H17.5613V13.8679Z" fill="#3B3BFF"/>
<path d="M17.2319 14.7536C17.4138 14.7536 17.5613 14.6098 17.5613 14.4325C17.5613 14.2552 17.4138 14.1115 17.2319 14.1115C17.05 14.1115 16.9026 14.2552 16.9026 14.4325C16.9026 14.6098 17.05 14.7536 17.2319 14.7536Z" fill="#3B3BFF"/>
<path d="M17.5967 13.8967H16.8687V14.4582H17.5967V13.8967Z" fill="#3B3BFF"/>
<path d="M17.2319 14.7973C17.433 14.7973 17.5959 14.6384 17.5959 14.4424C17.5959 14.2464 17.433 14.0875 17.2319 14.0875C17.0309 14.0875 16.8679 14.2464 16.8679 14.4424C16.8679 14.6384 17.0309 14.7973 17.2319 14.7973Z" fill="#3B3BFF"/>
<path d="M17.4285 14.061H17.0354V14.3642H17.4285V14.061Z" fill="#3B3BFF"/>
<path d="M17.232 14.5897C17.3405 14.5897 17.4285 14.5039 17.4285 14.3981C17.4285 14.2922 17.3405 14.2064 17.232 14.2064C17.1234 14.2064 17.0354 14.2922 17.0354 14.3981C17.0354 14.5039 17.1234 14.5897 17.232 14.5897Z" fill="#3B3BFF"/>
<path d="M17.5609 13.9406H16.9039V14.4473H17.5609V13.9406Z" fill="#3B3BFF"/>
<path d="M17.2318 14.7534C17.4133 14.7534 17.5603 14.61 17.5603 14.4331C17.5603 14.2562 17.4133 14.1128 17.2318 14.1128C17.0504 14.1128 16.9033 14.2562 16.9033 14.4331C16.9033 14.61 17.0504 14.7534 17.2318 14.7534Z" fill="#3B3BFF"/>
<path d="M17.4092 14.0889H17.0544V14.3625H17.4092V14.0889Z" fill="#3B3BFF"/>
<path d="M17.2318 14.566C17.3298 14.566 17.4092 14.4886 17.4092 14.3931C17.4092 14.2975 17.3298 14.2201 17.2318 14.2201C17.1339 14.2201 17.0544 14.2975 17.0544 14.3931C17.0544 14.4886 17.1339 14.566 17.2318 14.566Z" fill="#3B3BFF"/>
<path d="M16.8462 14.0344C16.9523 14.0344 17.0382 13.9444 17.0382 13.8333C17.0382 13.7222 16.9523 13.6321 16.8462 13.6321C16.7401 13.6321 16.6542 13.7222 16.6542 13.8333C16.6542 13.9444 16.7401 14.0344 16.8462 14.0344Z" fill="white"/>
<path d="M17.5659 14.0344C17.672 14.0344 17.7579 13.9444 17.7579 13.8333C17.7579 13.7222 17.672 13.6321 17.5659 13.6321C17.4599 13.6321 17.3739 13.7222 17.3739 13.8333C17.3739 13.9444 17.4599 14.0344 17.5659 14.0344Z" fill="white"/>
<path d="M17.1997 14.4581C17.3058 14.4581 17.3917 14.3681 17.3917 14.257C17.3917 14.1459 17.3058 14.0558 17.1997 14.0558C17.0937 14.0558 17.0077 14.1459 17.0077 14.257C17.0077 14.3681 17.0937 14.4581 17.1997 14.4581Z" fill="white"/>
<path d="M16.8743 14.8685C16.9803 14.8685 17.0663 14.7785 17.0663 14.6674C17.0663 14.5563 16.9803 14.4662 16.8743 14.4662C16.7682 14.4662 16.6823 14.5563 16.6823 14.6674C16.6823 14.7785 16.7682 14.8685 16.8743 14.8685Z" fill="white"/>
<path d="M17.5584 14.8817C17.6644 14.8817 17.7504 14.7917 17.7504 14.6805C17.7504 14.5694 17.6644 14.4794 17.5584 14.4794C17.4523 14.4794 17.3663 14.5694 17.3663 14.6805C17.3663 14.7917 17.4523 14.8817 17.5584 14.8817Z" fill="white"/>
<path d="M15.0255 13.553H13.7416V14.5432H15.0255V13.553Z" fill="#3B3BFF"/>
<path d="M14.3834 15.1413C14.738 15.1413 15.0254 14.8611 15.0254 14.5154C15.0254 14.1697 14.738 13.8895 14.3834 13.8895C14.0289 13.8895 13.7415 14.1697 13.7415 14.5154C13.7415 14.8611 14.0289 15.1413 14.3834 15.1413Z" fill="#3B3BFF"/>
<path d="M14.7302 13.8428H14.0369V14.3775H14.7302V13.8428Z" fill="#3B3BFF"/>
<path d="M14.3835 14.7751C14.575 14.7751 14.7302 14.6238 14.7302 14.4371C14.7302 14.2504 14.575 14.0991 14.3835 14.0991C14.1921 14.0991 14.0369 14.2504 14.0369 14.4371C14.0369 14.6238 14.1921 14.7751 14.3835 14.7751Z" fill="#3B3BFF"/>
<path d="M14.9934 13.5927H13.7736V14.5334H14.9934V13.5927Z" fill="#3B3BFF"/>
<path d="M14.3833 15.1016C14.7201 15.1016 14.9932 14.8354 14.9932 14.507C14.9932 14.1786 14.7201 13.9124 14.3833 13.9124C14.0465 13.9124 13.7734 14.1786 13.7734 14.507C13.7734 14.8354 14.0465 15.1016 14.3833 15.1016Z" fill="#3B3BFF"/>
<path d="M14.7128 13.8679H14.0541V14.3759H14.7128V13.8679Z" fill="#3B3BFF"/>
<path d="M14.3834 14.7536C14.5653 14.7536 14.7128 14.6098 14.7128 14.4325C14.7128 14.2552 14.5653 14.1115 14.3834 14.1115C14.2015 14.1115 14.0541 14.2552 14.0541 14.4325C14.0541 14.6098 14.2015 14.7536 14.3834 14.7536Z" fill="#3B3BFF"/>
<path d="M14.7482 13.8967H14.0201V14.4582H14.7482V13.8967Z" fill="#3B3BFF"/>
<path d="M14.3834 14.7973C14.5845 14.7973 14.7474 14.6384 14.7474 14.4424C14.7474 14.2464 14.5845 14.0875 14.3834 14.0875C14.1824 14.0875 14.0194 14.2464 14.0194 14.4424C14.0194 14.6384 14.1824 14.7973 14.3834 14.7973Z" fill="#3B3BFF"/>
<path d="M14.58 14.061H14.1869V14.3642H14.58V14.061Z" fill="#3B3BFF"/>
<path d="M14.3835 14.5897C14.492 14.5897 14.58 14.5039 14.58 14.3981C14.58 14.2922 14.492 14.2064 14.3835 14.2064C14.2749 14.2064 14.1869 14.2922 14.1869 14.3981C14.1869 14.5039 14.2749 14.5897 14.3835 14.5897Z" fill="#3B3BFF"/>
<path d="M14.7125 13.9406H14.0554V14.4473H14.7125V13.9406Z" fill="#3B3BFF"/>
<path d="M14.3833 14.7534C14.5648 14.7534 14.7118 14.61 14.7118 14.4331C14.7118 14.2562 14.5648 14.1128 14.3833 14.1128C14.2019 14.1128 14.0548 14.2562 14.0548 14.4331C14.0548 14.61 14.2019 14.7534 14.3833 14.7534Z" fill="#3B3BFF"/>
<path d="M14.5607 14.0889H14.2059V14.3625H14.5607V14.0889Z" fill="#3B3BFF"/>
<path d="M14.3833 14.566C14.4813 14.566 14.5607 14.4886 14.5607 14.3931C14.5607 14.2975 14.4813 14.2201 14.3833 14.2201C14.2854 14.2201 14.2059 14.2975 14.2059 14.3931C14.2059 14.4886 14.2854 14.566 14.3833 14.566Z" fill="#3B3BFF"/>
<path d="M13.9977 14.0344C14.1037 14.0344 14.1897 13.9444 14.1897 13.8333C14.1897 13.7222 14.1037 13.6321 13.9977 13.6321C13.8916 13.6321 13.8057 13.7222 13.8057 13.8333C13.8057 13.9444 13.8916 14.0344 13.9977 14.0344Z" fill="white"/>
<path d="M14.7174 14.0344C14.8235 14.0344 14.9094 13.9444 14.9094 13.8333C14.9094 13.7222 14.8235 13.6321 14.7174 13.6321C14.6114 13.6321 14.5254 13.7222 14.5254 13.8333C14.5254 13.9444 14.6114 14.0344 14.7174 14.0344Z" fill="white"/>
<path d="M14.3512 14.4581C14.4573 14.4581 14.5432 14.3681 14.5432 14.257C14.5432 14.1459 14.4573 14.0558 14.3512 14.0558C14.2452 14.0558 14.1592 14.1459 14.1592 14.257C14.1592 14.3681 14.2452 14.4581 14.3512 14.4581Z" fill="white"/>
<path d="M14.0258 14.8685C14.1318 14.8685 14.2178 14.7785 14.2178 14.6674C14.2178 14.5563 14.1318 14.4662 14.0258 14.4662C13.9197 14.4662 13.8337 14.5563 13.8337 14.6674C13.8337 14.7785 13.9197 14.8685 14.0258 14.8685Z" fill="white"/>
<path d="M14.7098 14.8817C14.8159 14.8817 14.9019 14.7917 14.9019 14.6805C14.9019 14.5694 14.8159 14.4794 14.7098 14.4794C14.6038 14.4794 14.5178 14.5694 14.5178 14.6805C14.5178 14.7917 14.6038 14.8817 14.7098 14.8817Z" fill="white"/>
</g>
<defs>
<linearGradient id="paint0_linear_74_52626" x1="0.00012207" y1="-0.00012207" x2="16.0147" y2="-0.00012207" gradientUnits="userSpaceOnUse">
<stop/>
<stop offset="1" stop-color="white"/>
</linearGradient>
<clipPath id="clip0_74_52626">
<rect width="40" height="28" fill="white"/>
</clipPath>
</defs>
</svg>
