<svg width="40" height="28" viewBox="0 0 40 28" fill="none" xmlns="http://www.w3.org/2000/svg">
<path d="M40 0H0V28H40V0Z" fill="#00923F"/>
<path fill-rule="evenodd" clip-rule="evenodd" d="M20 3.40002L3.40002 14L20 24.6L36.6 14L20 3.40002Z" fill="#F8C300"/>
<path d="M19.9852 20.9856C23.8433 20.9856 26.9708 17.8581 26.9708 14C26.9708 10.142 23.8433 7.0144 19.9852 7.0144C16.1272 7.0144 12.9996 10.142 12.9996 14C12.9996 17.8581 16.1272 20.9856 19.9852 20.9856Z" fill="#28166F"/>
<path fill-rule="evenodd" clip-rule="evenodd" d="M20.6932 15.5068L20.7776 15.72L21.006 15.7344L20.83 15.8808L20.8864 16.1028L20.6932 15.98L20.4996 16.1028L20.5564 15.8808L20.38 15.7344L20.6084 15.72L20.6932 15.5068ZM25.9156 16.2524L25.9876 16.434L26.1824 16.4464L26.032 16.5712L26.0804 16.76L25.9156 16.6556L25.7504 16.76L25.7988 16.5712L25.6488 16.4464L25.8436 16.434L25.9156 16.2524ZM25.168 16.8312L25.2528 17.044L25.4812 17.0588L25.3048 17.2048L25.3616 17.4268L25.168 17.3044L24.9744 17.4268L25.0312 17.2048L24.8548 17.0588L25.0836 17.044L25.168 16.8312ZM24.8908 16.082L24.9912 16.3344L25.262 16.352L25.0532 16.5252L25.1204 16.788L24.8908 16.6428L24.6616 16.788L24.7288 16.5252L24.52 16.352L24.7908 16.3344L24.8908 16.082ZM24.8372 17.3868L24.9216 17.5996L25.1504 17.614L24.974 17.7604L25.0308 17.9824L24.8372 17.8596L24.6436 17.9824L24.7004 17.7604L24.524 17.614L24.7524 17.5996L24.8372 17.3868ZM24.1832 17.7308L24.2552 17.912L24.45 17.9248L24.3 18.0492L24.3484 18.2384L24.1832 18.134L24.0184 18.2384L24.0668 18.0492L23.9164 17.9248L24.1112 17.912L24.1832 17.7308ZM23.5108 18.356L23.5956 18.5688L23.824 18.5836L23.6476 18.7296L23.7044 18.9516L23.5108 18.8288L23.3176 18.9516L23.374 18.7296L23.198 18.5836L23.4264 18.5688L23.5108 18.356ZM23.5028 19.1384L23.5748 19.32L23.7696 19.3324L23.6196 19.4572L23.668 19.6464L23.5028 19.542L23.338 19.6464L23.3864 19.4572L23.236 19.3324L23.4308 19.32L23.5028 19.1384ZM23.492 17.724L23.564 17.9052L23.7588 17.9176L23.6084 18.0424L23.6568 18.2316L23.492 18.1272L23.3268 18.2316L23.3752 18.0424L23.2248 17.9176L23.42 17.9052L23.492 17.724ZM22.668 17.886L22.7404 18.0676L22.9352 18.08L22.7848 18.2048L22.8332 18.394L22.668 18.2896L22.5032 18.394L22.5516 18.2048L22.4012 18.08L22.596 18.0676L22.668 17.886ZM22.1396 11.1816L22.24 11.434L22.5108 11.4512L22.302 11.6244L22.3692 11.8872L22.1396 11.742L21.9104 11.8872L21.9776 11.6244L21.7688 11.4512L22.0396 11.434L22.1396 11.1816ZM22.0292 18.5256L22.1136 18.7388L22.3424 18.7532L22.166 18.8996L22.2228 19.1212L22.0292 18.9988L21.8356 19.1212L21.8924 18.8996L21.716 18.7532L21.9444 18.7388L22.0292 18.5256ZM21.6404 13.3048L21.7128 13.486L21.9076 13.4988L21.7572 13.6232L21.8056 13.8124L21.6404 13.708L21.4756 13.8124L21.524 13.6232L21.3736 13.4988L21.5684 13.486L21.6404 13.3048ZM21.4552 17.71L21.5272 17.8916L21.722 17.904L21.572 18.0284L21.6204 18.2176L21.4552 18.1132L21.2904 18.2176L21.3388 18.0284L21.1884 17.904L21.3832 17.8916L21.4552 17.71ZM20.0528 14.908L20.1372 15.1208L20.366 15.1356L20.1896 15.2816L20.2464 15.5036L20.0528 15.3812L19.8592 15.5036L19.916 15.2816L19.7396 15.1356L19.968 15.1208L20.0528 14.908ZM20.012 16.8896L20.112 17.142L20.3832 17.1592L20.174 17.3324L20.2412 17.5956L20.012 17.4504L19.7828 17.5956L19.85 17.3324L19.6408 17.1592L19.912 17.142L20.012 16.8896ZM20.0348 19.4164L20.0732 19.5132L20.1772 19.52L20.0972 19.5864L20.1228 19.6876L20.0348 19.6316L19.9468 19.6876L19.9724 19.5864L19.8924 19.52L19.9964 19.5132L20.0348 19.4164ZM19.5936 16.0768L19.6476 16.2128L19.7932 16.222L19.6808 16.3152L19.7172 16.4568L19.5936 16.3784L19.4704 16.4568L19.5064 16.3152L19.394 16.222L19.54 16.2128L19.5936 16.0768ZM19.0832 15.6356L19.1552 15.8172L19.35 15.8296L19.1996 15.954L19.248 16.1432L19.0832 16.0388L18.918 16.1432L18.9664 15.954L18.816 15.8296L19.0112 15.8172L19.0832 15.6356ZM17.2688 13.9676L17.3532 14.1808L17.5816 14.1952L17.4056 14.3416L17.462 14.5636L17.2688 14.4408L17.0752 14.5636L17.132 14.3416L16.9556 14.1952L17.184 14.1808L17.2688 13.9676ZM17.0644 17.496L17.1644 17.7484L17.4356 17.766L17.2264 17.9392L17.2936 18.202L17.0644 18.0568L16.8348 18.202L16.9024 17.9392L16.6932 17.766L16.964 17.7484L17.0644 17.496ZM16.2972 16.1032L16.382 16.316L16.6104 16.3308L16.434 16.4768L16.4908 16.6988L16.2972 16.576L16.104 16.6988L16.1604 16.4768L15.9844 16.3308L16.2128 16.316L16.2972 16.1032ZM16.0444 16.888L16.1164 17.0696L16.3112 17.082L16.1608 17.2064L16.2092 17.3956L16.0444 17.2912L15.8792 17.3956L15.9276 17.2064L15.7772 17.082L15.972 17.0696L16.0444 16.888ZM15.5232 15.1028L15.5772 15.2384L15.7228 15.248L15.6104 15.3412L15.6468 15.4824L15.5232 15.4044L15.4 15.4824L15.436 15.3412L15.3236 15.248L15.4696 15.2384L15.5232 15.1028ZM14.882 15.3844L14.982 15.6368L15.2532 15.654L15.044 15.8272L15.1112 16.0904L14.882 15.9452L14.6528 16.0904L14.72 15.8272L14.5108 15.654L14.782 15.6368L14.882 15.3844ZM14.3064 12.478L14.4068 12.7304L14.6776 12.7476L14.4688 12.9208L14.536 13.184L14.3064 13.0388L14.0772 13.184L14.1444 12.9208L13.9356 12.7476L14.2064 12.7304L14.3064 12.478ZM14.1488 16.0484L14.2336 16.2616L14.462 16.276L14.2856 16.4224L14.3424 16.644L14.1488 16.5216L13.9552 16.644L14.012 16.4224L13.8356 16.276L14.0644 16.2616L14.1488 16.0484Z" fill="white"/>
<path fill-rule="evenodd" clip-rule="evenodd" d="M15.8148 11.842C19.97 11.842 23.7792 13.3704 26.71 15.8928C26.8068 15.5528 26.8784 15.2024 26.9228 14.844C23.884 12.3792 20.0168 10.8992 15.8148 10.8992C15.0864 10.8992 14.368 10.9448 13.662 11.0312C13.5112 11.3532 13.384 11.688 13.2828 12.034C14.1088 11.9076 14.9544 11.842 15.8148 11.842Z" fill="white"/>
<path fill-rule="evenodd" clip-rule="evenodd" d="M14.0176 11.4791C14.0232 11.5475 14.0432 11.5991 14.0768 11.6343C14.1104 11.6695 14.1544 11.6847 14.2092 11.6803C14.264 11.6755 14.3056 11.6531 14.3328 11.6123C14.3604 11.5719 14.3708 11.5175 14.3652 11.4491C14.3592 11.3807 14.3392 11.3291 14.3056 11.2939C14.2716 11.2587 14.2272 11.2435 14.172 11.2483C14.1172 11.2527 14.0764 11.2755 14.0492 11.3159C14.0224 11.3559 14.0116 11.4103 14.0176 11.4791ZM13.8872 11.4903C13.8784 11.3899 13.8992 11.3079 13.9488 11.2443C13.9984 11.1807 14.0696 11.1451 14.1624 11.1371C14.2552 11.1291 14.3316 11.1523 14.3916 11.2063C14.4516 11.2607 14.486 11.3379 14.4944 11.4379C14.5032 11.5383 14.4824 11.6203 14.4324 11.6839C14.3828 11.7475 14.3112 11.7835 14.2188 11.7915C14.1256 11.7995 14.0496 11.7763 13.9896 11.7219C13.93 11.6675 13.8956 11.5903 13.8872 11.4903ZM14.9016 11.3743L15.0524 11.3691C15.0852 11.3679 15.1088 11.3607 15.124 11.3467C15.1388 11.3331 15.1456 11.3119 15.1448 11.2835C15.144 11.2563 15.1356 11.2359 15.1204 11.2227C15.1048 11.2091 15.0824 11.2027 15.0528 11.2039L14.896 11.2091L14.9016 11.3743ZM14.7852 11.7291L14.7644 11.1059L15.0668 11.0959C15.1344 11.0935 15.1852 11.1063 15.2188 11.1343C15.2528 11.1623 15.2704 11.2063 15.2724 11.2659C15.2736 11.3039 15.2668 11.3359 15.2516 11.3619C15.2368 11.3879 15.2144 11.4059 15.1848 11.4163C15.212 11.4251 15.232 11.4391 15.244 11.4583C15.256 11.4779 15.2636 11.5083 15.2668 11.5499L15.272 11.6235C15.272 11.6239 15.272 11.6247 15.272 11.6259C15.274 11.6631 15.2828 11.6855 15.2984 11.6927L15.2988 11.7119L15.1584 11.7167C15.1536 11.7079 15.15 11.6975 15.1472 11.6847C15.1444 11.6719 15.142 11.6567 15.1412 11.6387L15.1372 11.5731C15.1344 11.5347 15.1264 11.5087 15.1128 11.4959C15.0992 11.4827 15.0752 11.4767 15.0412 11.4779L14.9052 11.4823L14.9136 11.7247L14.7852 11.7291ZM15.7052 11.5891L15.808 11.5911C15.8676 11.5923 15.9112 11.5775 15.9384 11.5467C15.9656 11.5163 15.98 11.4655 15.9812 11.3959C15.9824 11.3259 15.9712 11.2747 15.9468 11.2415C15.9224 11.2083 15.884 11.1911 15.8312 11.1903L15.7128 11.1879L15.7052 11.5891ZM15.5772 11.6991L15.5892 11.0759L15.8332 11.0803C15.9292 11.0823 16 11.1095 16.046 11.1619C16.092 11.2143 16.114 11.2931 16.112 11.3983C16.1108 11.4551 16.1012 11.5051 16.0832 11.5483C16.0648 11.5915 16.0388 11.6259 16.0056 11.6519C15.9804 11.6711 15.952 11.6847 15.92 11.6927C15.8884 11.7007 15.844 11.7043 15.7868 11.7031L15.5772 11.6991ZM16.3684 11.7131L16.402 11.0907L16.8544 11.1151L16.8484 11.2231L16.5224 11.2055L16.5156 11.3383L16.8132 11.3543L16.8076 11.4607L16.5096 11.4447L16.5012 11.6047L16.842 11.6231L16.836 11.7383L16.3684 11.7131ZM17.1024 11.7567L17.1684 11.1367L17.3572 11.1567L17.43 11.6419L17.602 11.1831L17.7912 11.2031L17.7252 11.8231L17.6056 11.8103L17.6588 11.3103L17.4796 11.7971L17.3492 11.7831L17.2752 11.2695L17.2216 11.7695L17.1024 11.7567ZM18.7544 11.9695L18.8848 11.3599L19.3276 11.4547L19.3048 11.5607L18.986 11.4923L18.958 11.6223L19.25 11.6847L19.2276 11.7891L18.9356 11.7263L18.902 11.8831L19.236 11.9547L19.212 12.0675L18.7544 11.9695ZM20.4044 12.0079L20.5244 12.0403C20.5568 12.0487 20.582 12.0483 20.6004 12.0387C20.6188 12.0287 20.6324 12.0087 20.6404 11.9779C20.6484 11.9495 20.6468 11.9259 20.6364 11.9071C20.626 11.8887 20.6064 11.8755 20.5776 11.8679L20.4516 11.8339L20.4044 12.0079ZM20.3744 12.1167L20.3168 12.3307L20.1928 12.2975L20.3548 11.6955L20.6228 11.7675C20.686 11.7847 20.7292 11.8143 20.7532 11.8555C20.7768 11.8971 20.78 11.9499 20.7628 12.0135C20.7464 12.0755 20.7176 12.1191 20.6764 12.1439C20.6356 12.1691 20.5852 12.1735 20.5264 12.1579L20.3744 12.1167ZM21.124 12.2147L21.268 12.2591C21.2992 12.2687 21.3244 12.2695 21.3428 12.2611C21.3616 12.2531 21.3748 12.2351 21.3832 12.2079C21.3912 12.1823 21.39 12.1603 21.38 12.1427C21.37 12.1247 21.3504 12.1115 21.3224 12.1027L21.1724 12.0567L21.124 12.2147ZM20.8984 12.5123L21.0812 11.9163L21.3704 12.0051C21.4352 12.0251 21.4792 12.0539 21.502 12.0911C21.5248 12.1287 21.5272 12.1759 21.5096 12.2331C21.4984 12.2695 21.4816 12.2975 21.4588 12.3171C21.436 12.3367 21.4092 12.3467 21.378 12.3467C21.4008 12.3639 21.4152 12.3835 21.4204 12.4059C21.4252 12.4283 21.4224 12.4595 21.412 12.4999L21.3928 12.5711C21.3928 12.5715 21.3924 12.5723 21.392 12.5735C21.382 12.6091 21.3828 12.6331 21.3952 12.6451L21.3896 12.6635L21.2552 12.6219C21.2536 12.6123 21.2532 12.6011 21.2548 12.5879C21.2564 12.5751 21.2592 12.5599 21.264 12.5427L21.2816 12.4795C21.2916 12.4423 21.2924 12.4151 21.284 12.3987C21.2752 12.3819 21.2548 12.3683 21.222 12.3583L21.092 12.3183L21.0208 12.5499L20.8984 12.5123ZM21.8476 12.5103C21.824 12.5747 21.8204 12.6299 21.836 12.6763C21.8512 12.7223 21.8848 12.7547 21.9364 12.7735C21.9884 12.7923 22.0352 12.7895 22.0772 12.7643C22.1192 12.7391 22.152 12.6943 22.1756 12.6299C22.1988 12.5655 22.2028 12.5103 22.1872 12.4643C22.1712 12.4179 22.1372 12.3851 22.0852 12.3663C22.034 12.3475 21.9872 12.3507 21.9456 12.3755C21.904 12.4007 21.8712 12.4455 21.8476 12.5103ZM21.7248 12.4651C21.7596 12.3707 21.8128 12.3051 21.8844 12.2683C21.9564 12.2319 22.036 12.2295 22.1236 12.2615C22.2108 12.2935 22.2704 12.3467 22.302 12.4211C22.3336 12.4959 22.332 12.5803 22.2972 12.6747C22.2628 12.7691 22.2096 12.8347 22.1372 12.8711C22.0652 12.9079 21.9852 12.9103 21.898 12.8783C21.8104 12.8463 21.7512 12.7931 21.72 12.7187C21.6888 12.6443 21.6904 12.5595 21.7248 12.4651ZM22.8784 13.1975C22.8448 13.2171 22.8116 13.2279 22.7784 13.2299C22.7456 13.2319 22.7108 13.2251 22.6744 13.2095C22.5944 13.1751 22.5412 13.1199 22.5152 13.0431C22.4892 12.9659 22.4956 12.8823 22.534 12.7919C22.5732 12.7003 22.6292 12.6379 22.702 12.6043C22.7748 12.5703 22.8528 12.5711 22.9352 12.6063C23.0072 12.6371 23.0584 12.6791 23.0892 12.7331C23.12 12.7867 23.1268 12.8455 23.1096 12.9095L22.9892 12.8583C22.9948 12.8255 22.9896 12.7963 22.9736 12.7711C22.958 12.7459 22.932 12.7259 22.896 12.7103C22.848 12.6899 22.8028 12.6915 22.7604 12.7151C22.718 12.7383 22.6836 12.7811 22.6572 12.8431C22.6304 12.9055 22.624 12.9603 22.6376 13.0079C22.6512 13.0555 22.6828 13.0899 22.7324 13.1111C22.77 13.1267 22.806 13.1291 22.8404 13.1179C22.8752 13.1063 22.9036 13.0827 22.926 13.0471L22.796 12.9915L22.8376 12.8935L23.0752 12.9947L22.9428 13.3051L22.864 13.2715L22.8784 13.1975ZM23.4712 13.1811L23.6064 13.2475C23.636 13.2619 23.6604 13.2663 23.68 13.2611C23.6996 13.2559 23.7156 13.2407 23.7284 13.2147C23.74 13.1907 23.7424 13.1691 23.7352 13.1499C23.728 13.1307 23.7108 13.1147 23.6844 13.1015L23.5436 13.0327L23.4712 13.1811ZM23.2016 13.4395L23.4756 12.8799L23.7472 13.0127C23.8084 13.0427 23.8472 13.0779 23.8636 13.1183C23.8804 13.1587 23.8756 13.2059 23.8492 13.2595C23.8324 13.2939 23.8112 13.3187 23.786 13.3347C23.7604 13.3503 23.732 13.3559 23.7012 13.3511C23.7212 13.3719 23.732 13.3931 23.734 13.4163C23.7352 13.4391 23.7276 13.4695 23.7108 13.5075L23.6808 13.5751C23.6808 13.5755 23.6804 13.5763 23.6796 13.5771C23.664 13.6107 23.6612 13.6347 23.6716 13.6487L23.6632 13.6655L23.5368 13.6039C23.5368 13.5939 23.5384 13.5827 23.542 13.5703C23.5456 13.5575 23.5508 13.5431 23.5584 13.5271L23.5856 13.4675C23.6012 13.4323 23.606 13.4055 23.6004 13.3875C23.5944 13.3695 23.576 13.3531 23.5456 13.3383L23.4236 13.2783L23.3168 13.4959L23.2016 13.4395ZM23.8984 13.7975L24.2016 13.2527L24.5972 13.4727L24.5444 13.5675L24.2592 13.4087L24.1948 13.5251L24.4556 13.6699L24.4036 13.7631L24.1428 13.6183L24.0648 13.7583L24.3636 13.9243L24.3076 14.0251L23.8984 13.7975ZM24.602 13.9907L24.7104 14.0559C24.6968 14.0875 24.6956 14.1167 24.7068 14.1427C24.718 14.1687 24.7424 14.1931 24.78 14.2155C24.812 14.2351 24.8392 14.2439 24.8624 14.2419C24.8856 14.2407 24.9036 14.2287 24.9172 14.2063C24.9364 14.1739 24.906 14.1191 24.826 14.0419C24.8248 14.0407 24.824 14.0399 24.8232 14.0391C24.8212 14.0371 24.818 14.0339 24.8136 14.0299C24.77 13.9887 24.742 13.9551 24.7292 13.9287C24.7172 13.9055 24.7128 13.8803 24.7152 13.8539C24.7176 13.8275 24.7272 13.8007 24.744 13.7727C24.7752 13.7207 24.8168 13.6919 24.8688 13.6851C24.9208 13.6791 24.9804 13.6959 25.0468 13.7359C25.1092 13.7735 25.1492 13.8179 25.1664 13.8683C25.184 13.9191 25.1772 13.9719 25.1472 14.0267L25.0416 13.9631C25.0552 13.9359 25.0572 13.9103 25.0472 13.8863C25.0376 13.8619 25.016 13.8395 24.9832 13.8199C24.9544 13.8023 24.9288 13.7947 24.9064 13.7963C24.884 13.7983 24.8668 13.8095 24.854 13.8303C24.8368 13.8587 24.8548 13.8979 24.9068 13.9487C24.9208 13.9623 24.932 13.9731 24.9396 13.9807C24.9728 14.0143 24.9956 14.0387 25.0088 14.0539C25.0216 14.0695 25.032 14.0839 25.04 14.0983C25.0544 14.1235 25.0612 14.1491 25.06 14.1755C25.0588 14.2023 25.05 14.2295 25.0332 14.2571C24.9996 14.3127 24.9552 14.3443 24.8992 14.3523C24.8432 14.3603 24.7812 14.3439 24.7132 14.3027C24.646 14.2623 24.6024 14.2151 24.5832 14.1607C24.564 14.1067 24.57 14.0499 24.602 13.9907ZM25.2588 14.4015L25.3636 14.4727C25.3484 14.5035 25.346 14.5323 25.356 14.5591C25.3656 14.5855 25.3888 14.6111 25.4252 14.6355C25.456 14.6563 25.4828 14.6667 25.506 14.6663C25.5292 14.6659 25.548 14.6551 25.5624 14.6335C25.5836 14.6019 25.556 14.5459 25.48 14.4643C25.4792 14.4635 25.478 14.4623 25.4776 14.4615C25.4752 14.4595 25.4724 14.4563 25.4684 14.4515C25.4272 14.4083 25.4008 14.3735 25.3892 14.3463C25.3788 14.3227 25.3756 14.2971 25.3792 14.2711C25.3832 14.2447 25.394 14.2183 25.4124 14.1915C25.4464 14.1411 25.4896 14.1143 25.5416 14.1107C25.594 14.1071 25.6524 14.1271 25.7168 14.1707C25.7772 14.2115 25.8144 14.2575 25.8292 14.3091C25.844 14.3607 25.8348 14.4127 25.8016 14.4659L25.6992 14.3971C25.7144 14.3707 25.7176 14.3451 25.7092 14.3203C25.7008 14.2955 25.6804 14.2723 25.6488 14.2507C25.6208 14.2319 25.5956 14.2227 25.5732 14.2235C25.5508 14.2243 25.5328 14.2347 25.5192 14.2547C25.5008 14.2819 25.5164 14.3223 25.5656 14.3755C25.5792 14.3899 25.5896 14.4015 25.5968 14.4095C25.628 14.4443 25.6496 14.4703 25.662 14.4859C25.674 14.5019 25.6836 14.5175 25.6908 14.5319C25.704 14.5579 25.7092 14.5839 25.7068 14.6103C25.7044 14.6367 25.694 14.6635 25.6756 14.6903C25.6396 14.7439 25.5932 14.7735 25.5368 14.7783C25.4804 14.7835 25.4196 14.7639 25.3536 14.7191C25.2888 14.6751 25.248 14.6255 25.2316 14.5707C25.2148 14.5155 25.224 14.4591 25.2588 14.4015ZM26.0512 14.8219C26.0096 14.8767 25.9896 14.9287 25.9912 14.9771C25.9924 15.0259 26.0152 15.0667 26.0588 15.0999C26.1028 15.1331 26.1488 15.1439 26.1964 15.1323C26.2436 15.1207 26.288 15.0871 26.3296 15.0323C26.3708 14.9779 26.3908 14.9259 26.3892 14.8771C26.3872 14.8283 26.3644 14.7871 26.3204 14.7539C26.2768 14.7207 26.2312 14.7103 26.184 14.7223C26.1368 14.7339 26.0924 14.7671 26.0512 14.8219ZM25.9468 14.7431C26.0076 14.6631 26.0776 14.6159 26.1568 14.6015C26.2364 14.5875 26.3132 14.6087 26.3876 14.6647C26.462 14.7211 26.5032 14.7891 26.5116 14.8699C26.5196 14.9503 26.4936 15.0307 26.4332 15.1107C26.3724 15.1911 26.302 15.2383 26.2224 15.2519C26.1428 15.2659 26.0656 15.2451 25.9916 15.1891C25.9172 15.1327 25.876 15.0643 25.868 14.9839C25.86 14.9039 25.886 14.8235 25.9468 14.7431Z" fill="#00923F"/>
</svg>
